<?xml version="1.0" encoding="UTF-8"?>
<svg version="1.1" xmlns="http://www.w3.org/2000/svg" width="348" height="45">
<path d="M0 0 C114.84 0 229.68 0 348 0 C348 14.85 348 29.7 348 45 C233.16 45 118.32 45 0 45 C0 30.15 0 15.3 0 0 Z " fill="#1D2B53" transform="translate(0,0)"/>
<path d="M0 0 C10.56 0 21.12 0 32 0 C32 1.65 32 3.3 32 5 C28.846632 5.70074844 26.27275026 6 23 6 C22.67 8.31 22.34 10.62 22 13 C19.92446352 13.5534764 18.15634036 14 16 14 C16 16.31 16 18.62 16 21 C14.68 21.33 13.36 21.66 12 22 C15.3 22.33 18.6 22.66 22 23 C22 24.98 22 26.96 22 29 C21.360625 29.144375 20.72125 29.28875 20.0625 29.4375 C18.02454854 29.81007181 18.02454854 29.81007181 17 31 C122.27 31 227.54 31 336 31 C336 32.98 336 34.96 336 37 C334.68 37.33 333.36 37.66 332 38 C335.3 38.33 338.6 38.66 342 39 C342 40.98 342 42.96 342 45 C229.14 45 116.28 45 0 45 C0 30.15 0 15.3 0 0 Z " fill="#1D2B53" transform="translate(0,0)"/>
<path d="M0 0 C3.63 0 7.26 0 11 0 C11 7.26 11 14.52 11 22 C9.35 22 7.7 22 6 22 C5.67 24.31 5.34 26.62 5 29 C0.03926578 30.32286246 -4.91111512 30.08893197 -10 30 C-10 27.33333333 -10 24.66666667 -10 22 C-11.98 22 -13.96 22 -16 22 C-16 19.69 -16 17.38 -16 15 C-10.06 14.505 -10.06 14.505 -4 14 C-5.98 14 -7.96 14 -10 14 C-10 11.69 -10 9.38 -10 7 C-6.7 6.67 -3.4 6.34 0 6 C0 4.02 0 2.04 0 0 Z " fill="#1D2B53" transform="translate(337,0)"/>
<path d="M0 0 C0.99 0.66 1.98 1.32 3 2 C2.01 2 1.02 2 0 2 C0 4.31 0 6.62 0 9 C1.39025391 8.89171875 1.39025391 8.89171875 2.80859375 8.78125 C4.00613281 8.6884375 5.20367187 8.595625 6.4375 8.5 C7.63246094 8.4071875 8.82742188 8.314375 10.05859375 8.21875 C13 8 13 8 14 8 C14.33 5.69 14.66 3.38 15 1 C16.65614657 0.61781233 18.32457024 0.28604898 20 0 C21 1 21 1 21.11352539 3.22485352 C21.10828857 4.18319092 21.10305176 5.14152832 21.09765625 6.12890625 C21.09443359 7.16337891 21.09121094 8.19785156 21.08789062 9.26367188 C21.07951172 10.35228516 21.07113281 11.44089844 21.0625 12.5625 C21.05798828 13.65498047 21.05347656 14.74746094 21.04882812 15.87304688 C21.03699826 18.58208495 21.02051543 21.29101599 21 24 C19.02 24 17.04 24 15 24 C15 22.02 15 20.04 15 18 C11.04 18 7.08 18 3 18 C7 16 7 16 8 16 C8.33 14.02 8.66 12.04 9 10 C4.05 10 -0.9 10 -6 10 C-6 11.65 -6 13.3 -6 15 C-6.33 15 -6.66 15 -7 15 C-7 13.02 -7 11.04 -7 9 C-5.35 8.67 -3.7 8.34 -2 8 C-1.855625 6.865625 -1.71125 5.73125 -1.5625 4.5625 C-1 1 -1 1 0 0 Z " fill="#1D2B53" transform="translate(327,21)"/>
<path d="M0 0 C4.95 0 9.9 0 15 0 C15 1.98 15 3.96 15 6 C10.03926578 7.32286246 5.08888488 7.08893197 0 7 C0 4.69 0 2.38 0 0 Z " fill="#88809F" transform="translate(321,31)"/>
<path d="M0 0 C4.95 0 9.9 0 15 0 C15 1.98 15 3.96 15 6 C10.03926578 7.32286246 5.08888488 7.08893197 0 7 C0 4.69 0 2.38 0 0 Z " fill="#88809F" transform="translate(305,31)"/>
<path d="M0 0 C4.95 0 9.9 0 15 0 C15 1.98 15 3.96 15 6 C10.03926578 7.32286246 5.08888488 7.08893197 0 7 C0 4.69 0 2.38 0 0 Z " fill="#88809F" transform="translate(289,31)"/>
<path d="M0 0 C4.95 0 9.9 0 15 0 C15 1.98 15 3.96 15 6 C10.03926578 7.32286246 5.08888488 7.08893197 0 7 C0 4.69 0 2.38 0 0 Z " fill="#88809F" transform="translate(273,31)"/>
<path d="M0 0 C4.95 0 9.9 0 15 0 C15 1.98 15 3.96 15 6 C10.03926578 7.32286246 5.08888488 7.08893197 0 7 C0 4.69 0 2.38 0 0 Z " fill="#88809F" transform="translate(257,31)"/>
<path d="M0 0 C4.95 0 9.9 0 15 0 C15 1.98 15 3.96 15 6 C10.03926578 7.32286246 5.08888488 7.08893197 0 7 C0 4.69 0 2.38 0 0 Z " fill="#88809F" transform="translate(241,31)"/>
<path d="M0 0 C4.95 0 9.9 0 15 0 C15 1.98 15 3.96 15 6 C10.03926578 7.32286246 5.08888488 7.08893197 0 7 C0 4.69 0 2.38 0 0 Z " fill="#88809F" transform="translate(225,31)"/>
<path d="M0 0 C4.95 0 9.9 0 15 0 C15 1.98 15 3.96 15 6 C10.03926578 7.32286246 5.08888488 7.08893197 0 7 C0 4.69 0 2.38 0 0 Z " fill="#88809F" transform="translate(209,31)"/>
<path d="M0 0 C4.95 0 9.9 0 15 0 C15 1.98 15 3.96 15 6 C10.03926578 7.32286246 5.08888488 7.08893197 0 7 C0 4.69 0 2.38 0 0 Z " fill="#88809F" transform="translate(193,31)"/>
<path d="M0 0 C4.95 0 9.9 0 15 0 C15 1.98 15 3.96 15 6 C10.03926578 7.32286246 5.08888488 7.08893197 0 7 C0 4.69 0 2.38 0 0 Z " fill="#88809F" transform="translate(177,31)"/>
<path d="M0 0 C4.95 0 9.9 0 15 0 C15 1.98 15 3.96 15 6 C10.03926578 7.32286246 5.08888488 7.08893197 0 7 C0 4.69 0 2.38 0 0 Z " fill="#88809F" transform="translate(161,31)"/>
<path d="M0 0 C4.95 0 9.9 0 15 0 C15 1.98 15 3.96 15 6 C10.03926578 7.32286246 5.08888488 7.08893197 0 7 C0 4.69 0 2.38 0 0 Z " fill="#88809F" transform="translate(145,31)"/>
<path d="M0 0 C4.95 0 9.9 0 15 0 C15 1.98 15 3.96 15 6 C10.03926578 7.32286246 5.08888488 7.08893197 0 7 C0 4.69 0 2.38 0 0 Z " fill="#88809F" transform="translate(129,31)"/>
<path d="M0 0 C4.95 0 9.9 0 15 0 C15 1.98 15 3.96 15 6 C10.03926578 7.32286246 5.08888488 7.08893197 0 7 C0 4.69 0 2.38 0 0 Z " fill="#88809F" transform="translate(113,31)"/>
<path d="M0 0 C4.95 0 9.9 0 15 0 C15 1.98 15 3.96 15 6 C10.03926578 7.32286246 5.08888488 7.08893197 0 7 C0 4.69 0 2.38 0 0 Z " fill="#88809F" transform="translate(97,31)"/>
<path d="M0 0 C4.95 0 9.9 0 15 0 C15 1.98 15 3.96 15 6 C10.03926578 7.32286246 5.08888488 7.08893197 0 7 C0 4.69 0 2.38 0 0 Z " fill="#88809F" transform="translate(81,31)"/>
<path d="M0 0 C4.95 0 9.9 0 15 0 C15 1.98 15 3.96 15 6 C10.03926578 7.32286246 5.08888488 7.08893197 0 7 C0 4.69 0 2.38 0 0 Z " fill="#88809F" transform="translate(65,31)"/>
<path d="M0 0 C4.95 0 9.9 0 15 0 C15 1.98 15 3.96 15 6 C10.03926578 7.32286246 5.08888488 7.08893197 0 7 C0 4.69 0 2.38 0 0 Z " fill="#88809F" transform="translate(49,31)"/>
<path d="M0 0 C4.95 0 9.9 0 15 0 C15 1.98 15 3.96 15 6 C10.03926578 7.32286246 5.08888488 7.08893197 0 7 C0 4.69 0 2.38 0 0 Z " fill="#88809F" transform="translate(33,31)"/>
<path d="M0 0 C4.95 0 9.9 0 15 0 C15 1.98 15 3.96 15 6 C10.03926578 7.32286246 5.08888488 7.08893197 0 7 C0 4.69 0 2.38 0 0 Z " fill="#88809F" transform="translate(17,31)"/>
<path d="M0 0 C4.95 0 9.9 0 15 0 C15 1.98 15 3.96 15 6 C10.03926578 7.32286246 5.08888488 7.08893197 0 7 C0 4.69 0 2.38 0 0 Z " fill="#88809F" transform="translate(1,31)"/>
<path d="M0 0 C4.95 0 9.9 0 15 0 C15 1.98 15 3.96 15 6 C10.03926578 7.32286246 5.08888488 7.08893197 0 7 C0 4.69 0 2.38 0 0 Z " fill="#88809F" transform="translate(327,23)"/>
<path d="M0 0 C4.95 0 9.9 0 15 0 C15 1.98 15 3.96 15 6 C10.03926578 7.32286246 5.08888488 7.08893197 0 7 C0 4.69 0 2.38 0 0 Z " fill="#88809F" transform="translate(311,23)"/>
<path d="M0 0 C4.95 0 9.9 0 15 0 C15 1.98 15 3.96 15 6 C10.03926578 7.32286246 5.08888488 7.08893197 0 7 C0 4.69 0 2.38 0 0 Z " fill="#88809F" transform="translate(295,23)"/>
<path d="M0 0 C4.95 0 9.9 0 15 0 C15 1.98 15 3.96 15 6 C10.03926578 7.32286246 5.08888488 7.08893197 0 7 C0 4.69 0 2.38 0 0 Z " fill="#88809F" transform="translate(279,23)"/>
<path d="M0 0 C4.95 0 9.9 0 15 0 C15 1.98 15 3.96 15 6 C10.03926578 7.32286246 5.08888488 7.08893197 0 7 C0 4.69 0 2.38 0 0 Z " fill="#88809F" transform="translate(263,23)"/>
<path d="M0 0 C4.95 0 9.9 0 15 0 C15 1.98 15 3.96 15 6 C10.03926578 7.32286246 5.08888488 7.08893197 0 7 C0 4.69 0 2.38 0 0 Z " fill="#88809F" transform="translate(247,23)"/>
<path d="M0 0 C4.95 0 9.9 0 15 0 C15 1.98 15 3.96 15 6 C10.03926578 7.32286246 5.08888488 7.08893197 0 7 C0 4.69 0 2.38 0 0 Z " fill="#88809F" transform="translate(231,23)"/>
<path d="M0 0 C4.95 0 9.9 0 15 0 C15 1.98 15 3.96 15 6 C10.03926578 7.32286246 5.08888488 7.08893197 0 7 C0 4.69 0 2.38 0 0 Z " fill="#88809F" transform="translate(215,23)"/>
<path d="M0 0 C4.95 0 9.9 0 15 0 C15 1.98 15 3.96 15 6 C10.03926578 7.32286246 5.08888488 7.08893197 0 7 C0 4.69 0 2.38 0 0 Z " fill="#88809F" transform="translate(199,23)"/>
<path d="M0 0 C4.95 0 9.9 0 15 0 C15 1.98 15 3.96 15 6 C10.03926578 7.32286246 5.08888488 7.08893197 0 7 C0 4.69 0 2.38 0 0 Z " fill="#88809F" transform="translate(183,23)"/>
<path d="M0 0 C4.95 0 9.9 0 15 0 C15 1.98 15 3.96 15 6 C10.03926578 7.32286246 5.08888488 7.08893197 0 7 C0 4.69 0 2.38 0 0 Z " fill="#88809F" transform="translate(167,23)"/>
<path d="M0 0 C4.95 0 9.9 0 15 0 C15 1.98 15 3.96 15 6 C10.03926578 7.32286246 5.08888488 7.08893197 0 7 C0 4.69 0 2.38 0 0 Z " fill="#88809F" transform="translate(151,23)"/>
<path d="M0 0 C4.95 0 9.9 0 15 0 C15 1.98 15 3.96 15 6 C10.03926578 7.32286246 5.08888488 7.08893197 0 7 C0 4.69 0 2.38 0 0 Z " fill="#88809F" transform="translate(135,23)"/>
<path d="M0 0 C4.95 0 9.9 0 15 0 C15 1.98 15 3.96 15 6 C10.03926578 7.32286246 5.08888488 7.08893197 0 7 C0 4.69 0 2.38 0 0 Z " fill="#88809F" transform="translate(119,23)"/>
<path d="M0 0 C4.95 0 9.9 0 15 0 C15 1.98 15 3.96 15 6 C10.03926578 7.32286246 5.08888488 7.08893197 0 7 C0 4.69 0 2.38 0 0 Z " fill="#88809F" transform="translate(103,23)"/>
<path d="M0 0 C4.95 0 9.9 0 15 0 C15 1.98 15 3.96 15 6 C10.03926578 7.32286246 5.08888488 7.08893197 0 7 C0 4.69 0 2.38 0 0 Z " fill="#88809F" transform="translate(87,23)"/>
<path d="M0 0 C4.95 0 9.9 0 15 0 C15 1.98 15 3.96 15 6 C10.03926578 7.32286246 5.08888488 7.08893197 0 7 C0 4.69 0 2.38 0 0 Z " fill="#88809F" transform="translate(71,23)"/>
<path d="M0 0 C4.95 0 9.9 0 15 0 C15 1.98 15 3.96 15 6 C10.03926578 7.32286246 5.08888488 7.08893197 0 7 C0 4.69 0 2.38 0 0 Z " fill="#88809F" transform="translate(55,23)"/>
<path d="M0 0 C4.95 0 9.9 0 15 0 C15 1.98 15 3.96 15 6 C10.03926578 7.32286246 5.08888488 7.08893197 0 7 C0 4.69 0 2.38 0 0 Z " fill="#88809F" transform="translate(39,23)"/>
<path d="M0 0 C4.95 0 9.9 0 15 0 C15 1.98 15 3.96 15 6 C10.03926578 7.32286246 5.08888488 7.08893197 0 7 C0 4.69 0 2.38 0 0 Z " fill="#88809F" transform="translate(23,23)"/>
<path d="M0 0 C4.95 0 9.9 0 15 0 C15 1.98 15 3.96 15 6 C10.03926578 7.32286246 5.08888488 7.08893197 0 7 C0 4.69 0 2.38 0 0 Z " fill="#88809F" transform="translate(7,23)"/>
<path d="M0 0 C4.95 0 9.9 0 15 0 C15 1.98 15 3.96 15 6 C10.03926578 7.32286246 5.08888488 7.08893197 0 7 C0 4.69 0 2.38 0 0 Z " fill="#88809F" transform="translate(321,15)"/>
<path d="M0 0 C4.95 0 9.9 0 15 0 C15 1.98 15 3.96 15 6 C10.03926578 7.32286246 5.08888488 7.08893197 0 7 C0 4.69 0 2.38 0 0 Z " fill="#88809F" transform="translate(305,15)"/>
<path d="M0 0 C4.95 0 9.9 0 15 0 C15 1.98 15 3.96 15 6 C10.03926578 7.32286246 5.08888488 7.08893197 0 7 C0 4.69 0 2.38 0 0 Z " fill="#88809F" transform="translate(289,15)"/>
<path d="M0 0 C4.95 0 9.9 0 15 0 C15 1.98 15 3.96 15 6 C10.03926578 7.32286246 5.08888488 7.08893197 0 7 C0 4.69 0 2.38 0 0 Z " fill="#88809F" transform="translate(273,15)"/>
<path d="M0 0 C4.95 0 9.9 0 15 0 C15 1.98 15 3.96 15 6 C10.03926578 7.32286246 5.08888488 7.08893197 0 7 C0 4.69 0 2.38 0 0 Z " fill="#88809F" transform="translate(257,15)"/>
<path d="M0 0 C4.95 0 9.9 0 15 0 C15 1.98 15 3.96 15 6 C10.03926578 7.32286246 5.08888488 7.08893197 0 7 C0 4.69 0 2.38 0 0 Z " fill="#88809F" transform="translate(241,15)"/>
<path d="M0 0 C4.95 0 9.9 0 15 0 C15 1.98 15 3.96 15 6 C10.03926578 7.32286246 5.08888488 7.08893197 0 7 C0 4.69 0 2.38 0 0 Z " fill="#88809F" transform="translate(225,15)"/>
<path d="M0 0 C4.95 0 9.9 0 15 0 C15 1.98 15 3.96 15 6 C10.03926578 7.32286246 5.08888488 7.08893197 0 7 C0 4.69 0 2.38 0 0 Z " fill="#88809F" transform="translate(209,15)"/>
<path d="M0 0 C4.95 0 9.9 0 15 0 C15 1.98 15 3.96 15 6 C10.03926578 7.32286246 5.08888488 7.08893197 0 7 C0 4.69 0 2.38 0 0 Z " fill="#88809F" transform="translate(193,15)"/>
<path d="M0 0 C4.95 0 9.9 0 15 0 C15 1.98 15 3.96 15 6 C10.03926578 7.32286246 5.08888488 7.08893197 0 7 C0 4.69 0 2.38 0 0 Z " fill="#88809F" transform="translate(177,15)"/>
<path d="M0 0 C4.95 0 9.9 0 15 0 C15 1.98 15 3.96 15 6 C10.03926578 7.32286246 5.08888488 7.08893197 0 7 C0 4.69 0 2.38 0 0 Z " fill="#88809F" transform="translate(161,15)"/>
<path d="M0 0 C4.95 0 9.9 0 15 0 C15 1.98 15 3.96 15 6 C10.03926578 7.32286246 5.08888488 7.08893197 0 7 C0 4.69 0 2.38 0 0 Z " fill="#88809F" transform="translate(145,15)"/>
<path d="M0 0 C4.95 0 9.9 0 15 0 C15 1.98 15 3.96 15 6 C10.03926578 7.32286246 5.08888488 7.08893197 0 7 C0 4.69 0 2.38 0 0 Z " fill="#88809F" transform="translate(129,15)"/>
<path d="M0 0 C4.95 0 9.9 0 15 0 C15 1.98 15 3.96 15 6 C10.03926578 7.32286246 5.08888488 7.08893197 0 7 C0 4.69 0 2.38 0 0 Z " fill="#88809F" transform="translate(113,15)"/>
<path d="M0 0 C4.95 0 9.9 0 15 0 C15 1.98 15 3.96 15 6 C10.03926578 7.32286246 5.08888488 7.08893197 0 7 C0 4.69 0 2.38 0 0 Z " fill="#88809F" transform="translate(97,15)"/>
<path d="M0 0 C4.95 0 9.9 0 15 0 C15 1.98 15 3.96 15 6 C10.03926578 7.32286246 5.08888488 7.08893197 0 7 C0 4.69 0 2.38 0 0 Z " fill="#88809F" transform="translate(81,15)"/>
<path d="M0 0 C4.95 0 9.9 0 15 0 C15 1.98 15 3.96 15 6 C10.03926578 7.32286246 5.08888488 7.08893197 0 7 C0 4.69 0 2.38 0 0 Z " fill="#88809F" transform="translate(65,15)"/>
<path d="M0 0 C4.95 0 9.9 0 15 0 C15 1.98 15 3.96 15 6 C10.03926578 7.32286246 5.08888488 7.08893197 0 7 C0 4.69 0 2.38 0 0 Z " fill="#88809F" transform="translate(49,15)"/>
<path d="M0 0 C4.95 0 9.9 0 15 0 C15 1.98 15 3.96 15 6 C10.03926578 7.32286246 5.08888488 7.08893197 0 7 C0 4.69 0 2.38 0 0 Z " fill="#88809F" transform="translate(33,15)"/>
<path d="M0 0 C4.95 0 9.9 0 15 0 C15 1.98 15 3.96 15 6 C10.03926578 7.32286246 5.08888488 7.08893197 0 7 C0 4.69 0 2.38 0 0 Z " fill="#88809F" transform="translate(17,15)"/>
<path d="M0 0 C4.95 0 9.9 0 15 0 C15 1.98 15 3.96 15 6 C10.03926578 7.32286246 5.08888488 7.08893197 0 7 C0 4.69 0 2.38 0 0 Z " fill="#88809F" transform="translate(1,15)"/>
<path d="M0 0 C4.95 0 9.9 0 15 0 C15 1.98 15 3.96 15 6 C10.03926578 7.32286246 5.08888488 7.08893197 0 7 C0 4.69 0 2.38 0 0 Z " fill="#88809F" transform="translate(327,7)"/>
<path d="M0 0 C4.95 0 9.9 0 15 0 C15 1.98 15 3.96 15 6 C10.03926578 7.32286246 5.08888488 7.08893197 0 7 C0 4.69 0 2.38 0 0 Z " fill="#88809F" transform="translate(311,7)"/>
<path d="M0 0 C4.95 0 9.9 0 15 0 C15 1.98 15 3.96 15 6 C10.03926578 7.32286246 5.08888488 7.08893197 0 7 C0 4.69 0 2.38 0 0 Z " fill="#88809F" transform="translate(295,7)"/>
<path d="M0 0 C4.95 0 9.9 0 15 0 C15 1.98 15 3.96 15 6 C10.03926578 7.32286246 5.08888488 7.08893197 0 7 C0 4.69 0 2.38 0 0 Z " fill="#88809F" transform="translate(279,7)"/>
<path d="M0 0 C4.95 0 9.9 0 15 0 C15 1.98 15 3.96 15 6 C10.03926578 7.32286246 5.08888488 7.08893197 0 7 C0 4.69 0 2.38 0 0 Z " fill="#88809F" transform="translate(263,7)"/>
<path d="M0 0 C4.95 0 9.9 0 15 0 C15 1.98 15 3.96 15 6 C10.03926578 7.32286246 5.08888488 7.08893197 0 7 C0 4.69 0 2.38 0 0 Z " fill="#88809F" transform="translate(247,7)"/>
<path d="M0 0 C4.95 0 9.9 0 15 0 C15 1.98 15 3.96 15 6 C10.03926578 7.32286246 5.08888488 7.08893197 0 7 C0 4.69 0 2.38 0 0 Z " fill="#88809F" transform="translate(231,7)"/>
<path d="M0 0 C4.95 0 9.9 0 15 0 C15 1.98 15 3.96 15 6 C10.03926578 7.32286246 5.08888488 7.08893197 0 7 C0 4.69 0 2.38 0 0 Z " fill="#88809F" transform="translate(215,7)"/>
<path d="M0 0 C4.95 0 9.9 0 15 0 C15 1.98 15 3.96 15 6 C10.03926578 7.32286246 5.08888488 7.08893197 0 7 C0 4.69 0 2.38 0 0 Z " fill="#88809F" transform="translate(199,7)"/>
<path d="M0 0 C4.95 0 9.9 0 15 0 C15 1.98 15 3.96 15 6 C10.03926578 7.32286246 5.08888488 7.08893197 0 7 C0 4.69 0 2.38 0 0 Z " fill="#88809F" transform="translate(183,7)"/>
<path d="M0 0 C4.95 0 9.9 0 15 0 C15 1.98 15 3.96 15 6 C10.03926578 7.32286246 5.08888488 7.08893197 0 7 C0 4.69 0 2.38 0 0 Z " fill="#88809F" transform="translate(167,7)"/>
<path d="M0 0 C4.95 0 9.9 0 15 0 C15 1.98 15 3.96 15 6 C10.03926578 7.32286246 5.08888488 7.08893197 0 7 C0 4.69 0 2.38 0 0 Z " fill="#88809F" transform="translate(151,7)"/>
<path d="M0 0 C4.95 0 9.9 0 15 0 C15 1.98 15 3.96 15 6 C10.03926578 7.32286246 5.08888488 7.08893197 0 7 C0 4.69 0 2.38 0 0 Z " fill="#88809F" transform="translate(135,7)"/>
<path d="M0 0 C4.95 0 9.9 0 15 0 C15 1.98 15 3.96 15 6 C10.03926578 7.32286246 5.08888488 7.08893197 0 7 C0 4.69 0 2.38 0 0 Z " fill="#88809F" transform="translate(119,7)"/>
<path d="M0 0 C4.95 0 9.9 0 15 0 C15 1.98 15 3.96 15 6 C10.03926578 7.32286246 5.08888488 7.08893197 0 7 C0 4.69 0 2.38 0 0 Z " fill="#88809F" transform="translate(103,7)"/>
<path d="M0 0 C4.95 0 9.9 0 15 0 C15 1.98 15 3.96 15 6 C10.03926578 7.32286246 5.08888488 7.08893197 0 7 C0 4.69 0 2.38 0 0 Z " fill="#88809F" transform="translate(87,7)"/>
<path d="M0 0 C4.95 0 9.9 0 15 0 C15 1.98 15 3.96 15 6 C10.03926578 7.32286246 5.08888488 7.08893197 0 7 C0 4.69 0 2.38 0 0 Z " fill="#88809F" transform="translate(71,7)"/>
<path d="M0 0 C4.95 0 9.9 0 15 0 C15 1.98 15 3.96 15 6 C10.03926578 7.32286246 5.08888488 7.08893197 0 7 C0 4.69 0 2.38 0 0 Z " fill="#88809F" transform="translate(55,7)"/>
<path d="M0 0 C4.95 0 9.9 0 15 0 C15 1.98 15 3.96 15 6 C10.03926578 7.32286246 5.08888488 7.08893197 0 7 C0 4.69 0 2.38 0 0 Z " fill="#88809F" transform="translate(39,7)"/>
<path d="M0 0 C4.95 0 9.9 0 15 0 C15 1.98 15 3.96 15 6 C10.03926578 7.32286246 5.08888488 7.08893197 0 7 C0 4.69 0 2.38 0 0 Z " fill="#88809F" transform="translate(23,7)"/>
<path d="M0 0 C4.95 0 9.9 0 15 0 C15 1.98 15 3.96 15 6 C10.03926578 7.32286246 5.08888488 7.08893197 0 7 C0 4.69 0 2.38 0 0 Z " fill="#88809F" transform="translate(7,7)"/>
<path d="M0 0 C4.95 0 9.9 0 15 0 C15 1.98 15 3.96 15 6 C10.05 6 5.1 6 0 6 C0 4.02 0 2.04 0 0 Z " fill="#8981A0" transform="translate(327,39)"/>
<path d="M0 0 C4.95 0 9.9 0 15 0 C15 1.98 15 3.96 15 6 C10.05 6 5.1 6 0 6 C0 4.02 0 2.04 0 0 Z " fill="#8981A0" transform="translate(311,39)"/>
<path d="M0 0 C4.95 0 9.9 0 15 0 C15 1.98 15 3.96 15 6 C10.05 6 5.1 6 0 6 C0 4.02 0 2.04 0 0 Z " fill="#8981A0" transform="translate(295,39)"/>
<path d="M0 0 C4.95 0 9.9 0 15 0 C15 1.98 15 3.96 15 6 C10.05 6 5.1 6 0 6 C0 4.02 0 2.04 0 0 Z " fill="#8981A0" transform="translate(279,39)"/>
<path d="M0 0 C4.95 0 9.9 0 15 0 C15 1.98 15 3.96 15 6 C10.05 6 5.1 6 0 6 C0 4.02 0 2.04 0 0 Z " fill="#8981A0" transform="translate(263,39)"/>
<path d="M0 0 C4.95 0 9.9 0 15 0 C15 1.98 15 3.96 15 6 C10.05 6 5.1 6 0 6 C0 4.02 0 2.04 0 0 Z " fill="#8981A0" transform="translate(247,39)"/>
<path d="M0 0 C4.95 0 9.9 0 15 0 C15 1.98 15 3.96 15 6 C10.05 6 5.1 6 0 6 C0 4.02 0 2.04 0 0 Z " fill="#8981A0" transform="translate(231,39)"/>
<path d="M0 0 C4.95 0 9.9 0 15 0 C15 1.98 15 3.96 15 6 C10.05 6 5.1 6 0 6 C0 4.02 0 2.04 0 0 Z " fill="#8981A0" transform="translate(215,39)"/>
<path d="M0 0 C4.95 0 9.9 0 15 0 C15 1.98 15 3.96 15 6 C10.05 6 5.1 6 0 6 C0 4.02 0 2.04 0 0 Z " fill="#8981A0" transform="translate(199,39)"/>
<path d="M0 0 C4.95 0 9.9 0 15 0 C15 1.98 15 3.96 15 6 C10.05 6 5.1 6 0 6 C0 4.02 0 2.04 0 0 Z " fill="#8981A0" transform="translate(183,39)"/>
<path d="M0 0 C4.95 0 9.9 0 15 0 C15 1.98 15 3.96 15 6 C10.05 6 5.1 6 0 6 C0 4.02 0 2.04 0 0 Z " fill="#8981A0" transform="translate(167,39)"/>
<path d="M0 0 C4.95 0 9.9 0 15 0 C15 1.98 15 3.96 15 6 C10.05 6 5.1 6 0 6 C0 4.02 0 2.04 0 0 Z " fill="#8981A0" transform="translate(151,39)"/>
<path d="M0 0 C4.95 0 9.9 0 15 0 C15 1.98 15 3.96 15 6 C10.05 6 5.1 6 0 6 C0 4.02 0 2.04 0 0 Z " fill="#8981A0" transform="translate(135,39)"/>
<path d="M0 0 C4.95 0 9.9 0 15 0 C15 1.98 15 3.96 15 6 C10.05 6 5.1 6 0 6 C0 4.02 0 2.04 0 0 Z " fill="#8981A0" transform="translate(119,39)"/>
<path d="M0 0 C4.95 0 9.9 0 15 0 C15 1.98 15 3.96 15 6 C10.05 6 5.1 6 0 6 C0 4.02 0 2.04 0 0 Z " fill="#8981A0" transform="translate(103,39)"/>
<path d="M0 0 C4.95 0 9.9 0 15 0 C15 1.98 15 3.96 15 6 C10.05 6 5.1 6 0 6 C0 4.02 0 2.04 0 0 Z " fill="#8981A0" transform="translate(87,39)"/>
<path d="M0 0 C4.95 0 9.9 0 15 0 C15 1.98 15 3.96 15 6 C10.05 6 5.1 6 0 6 C0 4.02 0 2.04 0 0 Z " fill="#8981A0" transform="translate(71,39)"/>
<path d="M0 0 C4.95 0 9.9 0 15 0 C15 1.98 15 3.96 15 6 C10.05 6 5.1 6 0 6 C0 4.02 0 2.04 0 0 Z " fill="#8981A0" transform="translate(55,39)"/>
<path d="M0 0 C4.95 0 9.9 0 15 0 C15 1.98 15 3.96 15 6 C10.05 6 5.1 6 0 6 C0 4.02 0 2.04 0 0 Z " fill="#8981A0" transform="translate(39,39)"/>
<path d="M0 0 C4.95 0 9.9 0 15 0 C15 1.98 15 3.96 15 6 C10.05 6 5.1 6 0 6 C0 4.02 0 2.04 0 0 Z " fill="#8981A0" transform="translate(23,39)"/>
<path d="M0 0 C4.95 0 9.9 0 15 0 C15 1.98 15 3.96 15 6 C10.05 6 5.1 6 0 6 C0 4.02 0 2.04 0 0 Z " fill="#8981A0" transform="translate(7,39)"/>
<path d="M0 0 C4.95 0 9.9 0 15 0 C15 1.65 15 3.3 15 5 C10.03926578 6.32286246 5.08888488 6.08893197 0 6 C0 4.02 0 2.04 0 0 Z " fill="#81779A" transform="translate(321,0)"/>
<path d="M0 0 C4.95 0 9.9 0 15 0 C15 1.65 15 3.3 15 5 C10.03926578 6.32286246 5.08888488 6.08893197 0 6 C0 4.02 0 2.04 0 0 Z " fill="#81779A" transform="translate(305,0)"/>
<path d="M0 0 C4.95 0 9.9 0 15 0 C15 1.65 15 3.3 15 5 C10.03926578 6.32286246 5.08888488 6.08893197 0 6 C0 4.02 0 2.04 0 0 Z " fill="#81779A" transform="translate(289,0)"/>
<path d="M0 0 C4.95 0 9.9 0 15 0 C15 1.65 15 3.3 15 5 C10.03926578 6.32286246 5.08888488 6.08893197 0 6 C0 4.02 0 2.04 0 0 Z " fill="#81779A" transform="translate(273,0)"/>
<path d="M0 0 C4.95 0 9.9 0 15 0 C15 1.65 15 3.3 15 5 C10.03926578 6.32286246 5.08888488 6.08893197 0 6 C0 4.02 0 2.04 0 0 Z " fill="#81779A" transform="translate(257,0)"/>
<path d="M0 0 C4.95 0 9.9 0 15 0 C15 1.65 15 3.3 15 5 C10.03926578 6.32286246 5.08888488 6.08893197 0 6 C0 4.02 0 2.04 0 0 Z " fill="#81779A" transform="translate(241,0)"/>
<path d="M0 0 C4.95 0 9.9 0 15 0 C15 1.65 15 3.3 15 5 C10.03926578 6.32286246 5.08888488 6.08893197 0 6 C0 4.02 0 2.04 0 0 Z " fill="#81779A" transform="translate(225,0)"/>
<path d="M0 0 C4.95 0 9.9 0 15 0 C15 1.65 15 3.3 15 5 C10.03926578 6.32286246 5.08888488 6.08893197 0 6 C0 4.02 0 2.04 0 0 Z " fill="#81779A" transform="translate(209,0)"/>
<path d="M0 0 C4.95 0 9.9 0 15 0 C15 1.65 15 3.3 15 5 C10.03926578 6.32286246 5.08888488 6.08893197 0 6 C0 4.02 0 2.04 0 0 Z " fill="#81779A" transform="translate(193,0)"/>
<path d="M0 0 C4.95 0 9.9 0 15 0 C15 1.65 15 3.3 15 5 C10.03926578 6.32286246 5.08888488 6.08893197 0 6 C0 4.02 0 2.04 0 0 Z " fill="#81779A" transform="translate(177,0)"/>
<path d="M0 0 C4.95 0 9.9 0 15 0 C15 1.65 15 3.3 15 5 C10.03926578 6.32286246 5.08888488 6.08893197 0 6 C0 4.02 0 2.04 0 0 Z " fill="#81779A" transform="translate(161,0)"/>
<path d="M0 0 C4.95 0 9.9 0 15 0 C15 1.65 15 3.3 15 5 C10.03926578 6.32286246 5.08888488 6.08893197 0 6 C0 4.02 0 2.04 0 0 Z " fill="#81779A" transform="translate(145,0)"/>
<path d="M0 0 C4.95 0 9.9 0 15 0 C15 1.65 15 3.3 15 5 C10.03926578 6.32286246 5.08888488 6.08893197 0 6 C0 4.02 0 2.04 0 0 Z " fill="#81779A" transform="translate(129,0)"/>
<path d="M0 0 C4.95 0 9.9 0 15 0 C15 1.65 15 3.3 15 5 C10.03926578 6.32286246 5.08888488 6.08893197 0 6 C0 4.02 0 2.04 0 0 Z " fill="#81779A" transform="translate(113,0)"/>
<path d="M0 0 C4.95 0 9.9 0 15 0 C15 1.65 15 3.3 15 5 C10.03926578 6.32286246 5.08888488 6.08893197 0 6 C0 4.02 0 2.04 0 0 Z " fill="#81779A" transform="translate(97,0)"/>
<path d="M0 0 C4.95 0 9.9 0 15 0 C15 1.65 15 3.3 15 5 C10.03926578 6.32286246 5.08888488 6.08893197 0 6 C0 4.02 0 2.04 0 0 Z " fill="#81779A" transform="translate(81,0)"/>
<path d="M0 0 C4.95 0 9.9 0 15 0 C15 1.65 15 3.3 15 5 C10.03926578 6.32286246 5.08888488 6.08893197 0 6 C0 4.02 0 2.04 0 0 Z " fill="#81779A" transform="translate(65,0)"/>
<path d="M0 0 C4.95 0 9.9 0 15 0 C15 1.65 15 3.3 15 5 C10.03926578 6.32286246 5.08888488 6.08893197 0 6 C0 4.02 0 2.04 0 0 Z " fill="#81779A" transform="translate(49,0)"/>
<path d="M0 0 C4.95 0 9.9 0 15 0 C15 1.65 15 3.3 15 5 C10.03926578 6.32286246 5.08888488 6.08893197 0 6 C0 4.02 0 2.04 0 0 Z " fill="#81779A" transform="translate(33,0)"/>
<path d="M0 0 C4.95 0 9.9 0 15 0 C15 1.65 15 3.3 15 5 C10.03926578 6.32286246 5.08888488 6.08893197 0 6 C0 4.02 0 2.04 0 0 Z " fill="#81779A" transform="translate(17,0)"/>
<path d="M0 0 C4.95 0 9.9 0 15 0 C15 1.65 15 3.3 15 5 C10.03926578 6.32286246 5.08888488 6.08893197 0 6 C0 4.02 0 2.04 0 0 Z " fill="#81779A" transform="translate(1,0)"/>
<path d="M0 0 C3.63 0 7.26 0 11 0 C11 2.31 11 4.62 11 7 C7.37 7 3.74 7 0 7 C0 4.69 0 2.38 0 0 Z " fill="#8C83A2" transform="translate(337,31)"/>
<path d="M0 0 C3.63 0 7.26 0 11 0 C11 2.31 11 4.62 11 7 C7.37 7 3.74 7 0 7 C0 4.69 0 2.38 0 0 Z " fill="#8C83A2" transform="translate(337,15)"/>
<path d="M0 0 C3.63 0 7.26 0 11 0 C11 1.98 11 3.96 11 6 C7.37 6 3.74 6 0 6 C0 4.02 0 2.04 0 0 Z " fill="#857A9D" transform="translate(337,0)"/>
<path d="M0 0 C0.33 0.66 0.66 1.32 1 2 C2.06541016 1.87431641 2.06541016 1.87431641 3.15234375 1.74609375 C4.07144531 1.64425781 4.99054688 1.54242188 5.9375 1.4375 C7.31228516 1.28087891 7.31228516 1.28087891 8.71484375 1.12109375 C9.46894531 1.08113281 10.22304688 1.04117188 11 1 C12 2 12 2 12.0625 5.5625 C12.041875 6.696875 12.02125 7.83125 12 9 C10.02 9 8.04 9 6 9 C6 7.02 6 5.04 6 3 C2.04 3 -1.92 3 -6 3 C-4 2 -2 1 0 0 Z " fill="#1D2B53" transform="translate(336,36)"/>
<path d="M0 0 C1.98 0 3.96 0 6 0 C6 1.98 6 3.96 6 6 C4.34385343 6.38218767 2.67542976 6.71395102 1 7 C0 6 0 6 -0.0625 2.9375 C-0.041875 1.968125 -0.02125 0.99875 0 0 Z " fill="#81789A" transform="translate(0,23)"/>
<path d="M0 0 C1.98 0 3.96 0 6 0 C6 1.98 6 3.96 6 6 C4.34385343 6.38218767 2.67542976 6.71395102 1 7 C0 6 0 6 -0.0625 2.9375 C-0.041875 1.968125 -0.02125 0.99875 0 0 Z " fill="#81789A" transform="translate(0,7)"/>
<path d="M0 0 C1.98 0 3.96 0 6 0 C6 1.98 6 3.96 6 6 C4.02 6 2.04 6 0 6 C0 4.02 0 2.04 0 0 Z " fill="#81789A" transform="translate(0,39)"/>
<path d="M0 0 C1.65 0 3.3 0 5 0 C5 2.31 5 4.62 5 7 C3.35 7 1.7 7 0 7 C0 4.69 0 2.38 0 0 Z " fill="#8E87A3" transform="translate(343,23)"/>
<path d="M0 0 C1.65 0 3.3 0 5 0 C5 2.31 5 4.62 5 7 C3.35 7 1.7 7 0 7 C0 4.69 0 2.38 0 0 Z " fill="#8E87A3" transform="translate(343,7)"/>
<path d="M0 0 C1.65 0 3.3 0 5 0 C5 1.98 5 3.96 5 6 C3.35 6 1.7 6 0 6 C0 4.02 0 2.04 0 0 Z " fill="#8F8AA4" transform="translate(343,39)"/>
</svg>
