<?xml version="1.0" encoding="UTF-8"?>
<svg version="1.1" xmlns="http://www.w3.org/2000/svg" width="192" height="96">
<path d="M0 0 C63.36 0 126.72 0 192 0 C192 31.68 192 63.36 192 96 C128.64 96 65.28 96 0 96 C0 64.32 0 32.64 0 0 Z " fill="#086528" transform="translate(0,0)"/>
<path d="M0 0 C1.65 0.33 3.3 0.66 5 1 C5.59732819 3.76264289 6 6.16032769 6 9 C6.99 10.485 6.99 10.485 8 12 C7.625 14.6875 7.625 14.6875 7 17 C1.25 16.25 1.25 16.25 -1 14 C-4.58343976 13.83322718 -4.58343976 13.83322718 -8 14 C-9.125 10.25 -9.125 10.25 -8 8 C-6.5459375 7.62875 -6.5459375 7.62875 -5.0625 7.25 C-1.69520182 6.2895788 -1.69520182 6.2895788 -0.625 2.875 C-0.41875 1.92625 -0.2125 0.9775 0 0 Z " fill="#10852C" transform="translate(48,35)"/>
<path d="M0 0 C3.25696479 0.41755959 4.63443291 0.63443291 7 3 C7.1875 6.5625 7.1875 6.5625 7 10 C6.67 10.33 6.34 10.66 6 11 C6.66 11.33 7.32 11.66 8 12 C7.67 12.66 7.34 13.32 7 14 C6.34 13.67 5.68 13.34 5 13 C5 13.99 5 14.98 5 16 C2.04335481 17.4783226 -0.74229737 17.06032783 -4 17 C-4.66 15.35 -5.32 13.7 -6 12 C-3.69 11.01 -1.38 10.02 1 9 C0.34 8.01 -0.32 7.02 -1 6 C-1.1875 3.375 -1.1875 3.375 -1 1 C-0.67 0.67 -0.34 0.34 0 0 Z " fill="#14832B" transform="translate(15,69)"/>
<path d="M0 0 C0.66 0 1.32 0 2 0 C2.99 2.31 3.98 4.62 5 7 C2.36 7.66 -0.28 8.32 -3 9 C-2.39582098 11.00509468 -2.39582098 11.00509468 -1 13 C1.62627991 14.1341403 1.62627991 14.1341403 4.625 14.75 C5.62789062 14.99234375 6.63078125 15.2346875 7.6640625 15.484375 C8.43492188 15.65453125 9.20578125 15.8246875 10 16 C10.33 17.98 10.66 19.96 11 22 C9 19 9 19 9 17 C8.26394531 16.96261719 7.52789062 16.92523438 6.76953125 16.88671875 C-3.58293501 16.18926065 -3.58293501 16.18926065 -7 13 C-7.8125 10.3125 -7.8125 10.3125 -8 8 C-5 6 -5 6 -2 6 C-1.855625 5.195625 -1.71125 4.39125 -1.5625 3.5625 C-1 1 -1 1 0 0 Z " fill="#094819" transform="translate(12,72)"/>
<path d="M0 0 C1.98 0 3.96 0 6 0 C6.12375 1.175625 6.12375 1.175625 6.25 2.375 C6.72806339 5.14749104 6.72806339 5.14749104 9.0625 6.3125 C9.701875 6.539375 10.34125 6.76625 11 7 C10.67 7.99 10.34 8.98 10 10 C8.63875 9.9690625 8.63875 9.9690625 7.25 9.9375 C4.13912132 9.87603436 4.13912132 9.87603436 1.75 10.5625 C0 11 0 11 -2 10 C-2 9.01 -2 8.02 -2 7 C-1.01 6.34 -0.02 5.68 1 5 C0.67 3.35 0.34 1.7 0 0 Z " fill="#10862E" transform="translate(171,9)"/>
<path d="M0 0 C0 2.31 0 4.62 0 7 C-2.64738916 8.4606285 -3.89448334 9 -7 9 C-7 10.65 -7 12.3 -7 14 C-7.66 14 -8.32 14 -9 14 C-9.66 11.36 -10.32 8.72 -11 6 C-10.01 5.67 -9.02 5.34 -8 5 C-7.34 4.01 -6.68 3.02 -6 2 C-3.83252916 0.71306419 -2.53199972 0 0 0 Z " fill="#094819" transform="translate(47,34)"/>
<path d="M0 0 C2.94601605 0.31848822 4.55858754 0.55858754 6.6875 2.6875 C10.1369549 8.76511101 10.24252717 14.18229172 10 21 C9.67 21 9.34 21 9 21 C8.86722656 20.25234375 8.73445312 19.5046875 8.59765625 18.734375 C8.42105469 17.74953125 8.24445313 16.7646875 8.0625 15.75 C7.88847656 14.77546875 7.71445313 13.8009375 7.53515625 12.796875 C7.21251365 11.11065529 6.85545549 9.42979682 6.43359375 7.765625 C6 6 6 6 6 4 C5.34 4.66 4.68 5.32 4 6 C1.375 5.625 1.375 5.625 -1 5 C-0.67 3.35 -0.34 1.7 0 0 Z " fill="#11862D" transform="translate(136,66)"/>
<path d="M0 0 C-0.33 1.65 -0.66 3.3 -1 5 C-1.99 5.33 -2.98 5.66 -4 6 C-4.33 5.67 -4.66 5.34 -5 5 C-6.64570159 6.05630262 -6.64570159 6.05630262 -8 8 C-8.04241723 10.33294775 -8.04092937 12.66702567 -8 15 C-8.99609375 17.22265625 -8.99609375 17.22265625 -10 19 C-10.05423638 17.08364783 -10.09289963 15.16685075 -10.125 13.25 C-10.14820312 12.18265625 -10.17140625 11.1153125 -10.1953125 10.015625 C-10.00248364 7.03834738 -9.45322368 5.54028077 -8 3 C-8 2.34 -8 1.68 -8 1 C-5.29120665 -0.35439668 -2.99066732 -0.06501451 0 0 Z " fill="#11862D" transform="translate(121,35)"/>
<path d="M0 0 C1.1446875 0.1546875 1.1446875 0.1546875 2.3125 0.3125 C2.3125 1.9625 2.3125 3.6125 2.3125 5.3125 C1.19875 5.76625 0.085 6.22 -1.0625 6.6875 C-4.64949008 8.03715986 -4.64949008 8.03715986 -6.6875 10.3125 C-6.0259761 5.68183269 -5.25613325 0.61117828 0 0 Z " fill="#10802B" transform="translate(152.6875,66.6875)"/>
<path d="M0 0 C2.0625 0.4375 2.0625 0.4375 4 1 C3.979375 1.78375 3.95875 2.5675 3.9375 3.375 C3.81315937 5.98114961 3.81315937 5.98114961 5 8 C3.68 8.33 2.36 8.66 1 9 C1 9.66 1 10.32 1 11 C0.01 11 -0.98 11 -2 11 C-1.85957123 9.35369672 -1.71250671 7.70795821 -1.5625 6.0625 C-1.48128906 5.14597656 -1.40007812 4.22945312 -1.31640625 3.28515625 C-1 1 -1 1 0 0 Z " fill="#094819" transform="translate(168,7)"/>
<path d="M0 0 C2.0625 0.4375 2.0625 0.4375 4 1 C4 1.99 4 2.98 4 4 C-2.625 5 -2.625 5 -6 5 C-6.33 3.68 -6.66 2.36 -7 1 C-5.5459375 1.0309375 -5.5459375 1.0309375 -4.0625 1.0625 C-1.12534105 1.35618499 -1.12534105 1.35618499 0 0 Z " fill="#10842C" transform="translate(27,19)"/>
<path d="M0 0 C2.31 0.33 4.62 0.66 7 1 C7.33 3.31 7.66 5.62 8 8 C7.443125 7.54625 6.88625 7.0925 6.3125 6.625 C3.94686561 4.96266232 1.70984342 3.97855457 -1 3 C-0.67 2.01 -0.34 1.02 0 0 Z " fill="#10812B" transform="translate(181,34)"/>
<path d="M0 0 C0.99 0.33 1.98 0.66 3 1 C4.1875 3.5625 4.1875 3.5625 5 6 C4.195625 6.12375 3.39125 6.2475 2.5625 6.375 C1.2940625 6.684375 1.2940625 6.684375 0 7 C-0.33 7.66 -0.66 8.32 -1 9 C-2.32 8.67 -3.64 8.34 -5 8 C-5 7.01 -5 6.02 -5 5 C-3.35 4.34 -1.7 3.68 0 3 C0 2.01 0 1.02 0 0 Z " fill="#0F7728" transform="translate(174,11)"/>
<path d="M0 0 C3 2 3 2 3.6875 4.125 C3.790625 4.74375 3.89375 5.3625 4 6 C5.32 5.67 6.64 5.34 8 5 C6.35 6.98 4.7 8.96 3 11 C2.67 10.34 2.34 9.68 2 9 C1.34 9 0.68 9 0 9 C-0.33 8.34 -0.66 7.68 -1 7 C-1.66 7 -2.32 7 -3 7 C-3 6.34 -3 5.68 -3 5 C-1.68 5 -0.36 5 1 5 C0.67 3.35 0.34 1.7 0 0 Z " fill="#0F812C" transform="translate(22,36)"/>
<path d="M0 0 C1.65 0.33 3.3 0.66 5 1 C4.67 2.32 4.34 3.64 4 5 C3.01 5 2.02 5 1 5 C-0.71711243 7.44496043 -0.71711243 7.44496043 -2 10 C-2.6875 8.3125 -2.6875 8.3125 -3 6 C-1.5625 3.3125 -1.5625 3.3125 0 1 C0 0.67 0 0.34 0 0 Z " fill="#10852C" transform="translate(117,14)"/>
<path d="M0 0 C4.35535069 1.16142685 6.64619703 2.07699505 9 6 C8.67 6.66 8.34 7.32 8 8 C4.5625 6.8125 4.5625 6.8125 1 5 C0.0625 2.3125 0.0625 2.3125 0 0 Z " fill="#094819" transform="translate(100,41)"/>
<path d="M0 0 C0.99 0.66 1.98 1.32 3 2 C2.67 3.32 2.34 4.64 2 6 C0.35 6 -1.3 6 -3 6 C-3.33 7.32 -3.66 8.64 -4 10 C-4.19990835 6.40164967 -3.96808719 4.06146896 -2 1 C-1.34 0.67 -0.68 0.34 0 0 Z " fill="#10852C" transform="translate(90,5)"/>
<path d="M0 0 C0.66 0 1.32 0 2 0 C1.25 4.75 1.25 4.75 -1 7 C-3.625 6.625 -3.625 6.625 -6 6 C-5.67 4.68 -5.34 3.36 -5 2 C-3.02 2.495 -3.02 2.495 -1 3 C-0.67 2.01 -0.34 1.02 0 0 Z " fill="#094819" transform="translate(141,79)"/>
<path d="M0 0 C2.475 0.495 2.475 0.495 5 1 C5.66 3.31 6.32 5.62 7 8 C1.125 6.125 1.125 6.125 0 5 C-0.04063832 3.33382885 -0.042721 1.66611905 0 0 Z " fill="#094819" transform="translate(79,7)"/>
<path d="M0 0 C3.33727786 1.17255709 5.77437487 2.18868404 8 5 C8 5.66 8 6.32 8 7 C4.62537285 6.45276317 2.91765 5.9451 0 4 C0 2.68 0 1.36 0 0 Z " fill="#094819" transform="translate(71,51)"/>
<path d="M0 0 C2.52259061 1.97420135 2.9929808 2.96745642 3.6875 6.1875 C3.790625 7.115625 3.89375 8.04375 4 9 C3.67 8.34 3.34 7.68 3 7 C1.35636866 6.27840576 -0.31050386 5.60648579 -2 5 C-2 3.68 -2 2.36 -2 1 C-1.34 0.67 -0.68 0.34 0 0 Z " fill="#0F812C" transform="translate(70,18)"/>
<path d="M0 0 C-1.75 4.875 -1.75 4.875 -4 6 C-4 5.01 -4 4.02 -4 3 C-4.33 3.66 -4.66 4.32 -5 5 C-6.32 4.67 -7.64 4.34 -9 4 C-8.67 3.01 -8.34 2.02 -8 1 C-2.25 0 -2.25 0 0 0 Z " fill="#11862D" transform="translate(31,4)"/>
<path d="M0 0 C1.75 0.125 1.75 0.125 4 1 C6.25 4.0625 6.25 4.0625 8 7 C7.67 7.66 7.34 8.32 7 9 C5.82460004 8.07347299 4.65989423 7.13336613 3.5 6.1875 C2.52546875 5.40439453 2.52546875 5.40439453 1.53125 4.60546875 C0 3 0 3 0 0 Z " fill="#094819" transform="translate(106,15)"/>
<path d="M0 0 C2.86724686 0.57344937 3.8614515 0.8614515 6 3 C6 3.99 6 4.98 6 6 C4.35 5.67 2.7 5.34 1 5 C0.67 3.35 0.34 1.7 0 0 Z " fill="#10822B" transform="translate(76,68)"/>
<path d="M0 0 C3.3 1.65 6.6 3.3 10 5 C10 5.66 10 6.32 10 7 C8.51515588 6.60404157 7.0371169 6.18249294 5.5625 5.75 C4.73878906 5.51796875 3.91507813 5.2859375 3.06640625 5.046875 C2.38449219 4.70140625 1.70257813 4.3559375 1 4 C0.67 2.68 0.34 1.36 0 0 Z " fill="#084919" transform="translate(178,35)"/>
<path d="M0 0 C4.51478398 0.53115106 7.34666857 2.36620292 11 5 C9 6 9 6 7.08984375 5.546875 C6.37957031 5.28390625 5.66929688 5.0209375 4.9375 4.75 C4.22464844 4.49734375 3.51179688 4.2446875 2.77734375 3.984375 C1 3 1 3 0 0 Z " fill="#094819" transform="translate(73,74)"/>
<path d="M0 0 C3 1 3 1 4.75 4.375 C6 8 6 8 5 11 C2.36620292 7.34666857 0.53115106 4.51478398 0 0 Z " fill="#094819" transform="translate(64,81)"/>
<path d="M0 0 C1.875 0.5 1.875 0.5 4 2 C4.98494554 4.65177645 5.45912382 7.20547307 6 10 C3 9 3 9 1.8125 6.9375 C1.544375 6.298125 1.27625 5.65875 1 5 C1.66 5 2.32 5 3 5 C2.01 3.35 1.02 1.7 0 0 Z " fill="#084D1B" transform="translate(140,37)"/>
<path d="M0 0 C4.8 2.46153846 4.8 2.46153846 5.8125 5.1875 C5.874375 5.785625 5.93625 6.38375 6 7 C4.125 6.6875 4.125 6.6875 2 6 C0 3 0 3 0 0 Z " fill="#0F812C" transform="translate(4,39)"/>
<path d="M0 0 C0.33 0.66 0.66 1.32 1 2 C0.67 2.66 0.34 3.32 0 4 C0.66 4.33 1.32 4.66 2 5 C0.35 5.33 -1.3 5.66 -3 6 C-3 6.66 -3 7.32 -3 8 C-3.66 7.67 -4.32 7.34 -5 7 C-5 6.01 -5 5.02 -5 4 C-4.01 4 -3.02 4 -2 4 C-2 3.01 -2 2.02 -2 1 C-1.34 0.67 -0.68 0.34 0 0 Z " fill="#116829" transform="translate(50,39)"/>
<path d="M0 0 C2.3125 0.1875 2.3125 0.1875 5 1 C6.8125 3.5625 6.8125 3.5625 8 6 C4.08597051 4.73058503 2.20927127 3.48832306 0 0 Z " fill="#10812C" transform="translate(98,6)"/>
<path d="M0 0 C3.93846154 3.32307692 3.93846154 3.32307692 4.25 6.75 C4.1675 7.4925 4.085 8.235 4 9 C3.01 8.34 2.02 7.68 1 7 C0.3125 3.375 0.3125 3.375 0 0 Z " fill="#0E7D2C" transform="translate(74,5)"/>
<path d="M0 0 C1.875 0.625 1.875 0.625 4 2 C5.25 5.125 5.25 5.125 6 8 C5.34 7.67 4.68 7.34 4 7 C4 6.34 4 5.68 4 5 C3.01 5 2.02 5 1 5 C0.67 3.35 0.34 1.7 0 0 Z " fill="#094819" transform="translate(81,85)"/>
<path d="M0 0 C-0.33 1.65 -0.66 3.3 -1 5 C-1.99 5 -2.98 5 -4 5 C-4.33 4.34 -4.66 3.68 -5 3 C-2.25 0 -2.25 0 0 0 Z " fill="#11862D" transform="translate(78,80)"/>
<path d="M0 0 C0.99 0.33 1.98 0.66 3 1 C2.625 3.4375 2.625 3.4375 2 6 C1.01 6.495 1.01 6.495 0 7 C0 6.01 0 5.02 0 4 C-0.66 3.67 -1.32 3.34 -2 3 C-1.34 2.01 -0.68 1.02 0 0 Z " fill="#11862D" transform="translate(85,48)"/>
<path d="M0 0 C2.99324263 1.0975223 3.84610901 1.67682892 5.25 4.625 C5.4975 5.40875 5.745 6.1925 6 7 C3.5625 6.3125 3.5625 6.3125 1 5 C0.1875 2.375 0.1875 2.375 0 0 Z " fill="#0F802C" transform="translate(106,23)"/>
<path d="M0 0 C5.75 1.625 5.75 1.625 8 5 C4.5625 4.1875 4.5625 4.1875 1 3 C0.67 2.01 0.34 1.02 0 0 Z " fill="#10832C" transform="translate(110,3)"/>
<path d="M0 0 C3 1 3 1 4.25 2.875 C5 5 5 5 4 8 C0 3.375 0 3.375 0 0 Z " fill="#094819" transform="translate(168,79)"/>
<path d="M0 0 C5.66153846 1.47692308 5.66153846 1.47692308 7.375 4.125 C7.684375 5.053125 7.684375 5.053125 8 6 C5.0280615 4.87548273 2.66559313 3.77706209 0 2 C0 1.34 0 0.68 0 0 Z " fill="#094819" transform="translate(17,23)"/>
<path d="M0 0 C2.92879371 0.62759865 5.36095629 1.58622659 8 3 C7.67 3.66 7.34 4.32 7 5 C4.0625 4.1875 4.0625 4.1875 1 3 C0.67 2.01 0.34 1.02 0 0 Z " fill="#094819" transform="translate(65,22)"/>
<path d="M0 0 C0.33 1.32 0.66 2.64 1 4 C-1.02045442 3.39816251 -3.02111039 2.72693904 -5 2 C-5.33 1.34 -5.66 0.68 -6 0 C-3.50907189 -1.24546405 -2.58919267 -0.7767578 0 0 Z " fill="#094819" transform="translate(25,9)"/>
</svg>
